<svg width="15" height="15" fill="none" xmlns="http://www.w3.org/2000/svg"><path d="M7.5 1.094A2.031 2.031 0 019.528 3.01l.003.115h3.281a.469.469 0 01.064.933l-.063.005h-.498l-.8 8.137a1.72 1.72 0 01-1.6 1.546l-.11.004h-4.61A1.718 1.718 0 013.5 12.308l-.014-.109-.8-8.136h-.498a.469.469 0 01-.464-.405l-.004-.064a.469.469 0 01.405-.465l.063-.004H5.47A2.031 2.031 0 017.5 1.094zm3.873 2.968H3.626l.792 8.046a.781.781 0 00.698.7l.08.005h4.608a.781.781 0 00.766-.627l.012-.079.79-8.044h.001zm-2.78 1.72a.469.469 0 01.465.404l.005.064v4.375a.469.469 0 01-.934.064l-.004-.064V6.25a.469.469 0 01.469-.469zm-2.187 0a.469.469 0 01.465.404l.004.064v4.375a.469.469 0 01-.933.064l-.005-.064V6.25a.469.469 0 01.47-.469zM7.5 2.031a1.094 1.094 0 00-1.09 1.003l-.004.09h2.188A1.094 1.094 0 007.5 2.031z" fill="#fff"/></svg>