<svg width="25" height="25" fill="none" xmlns="http://www.w3.org/2000/svg"><path d="M11.32.05C8.942.26 6.483 1.268 4.59 2.808c-.557.45-1.437 1.34-1.877 1.892C1.594 6.103.674 8 .294 9.702.053 10.768 0 11.29 0 12.513s.054 1.745.293 2.811c.387 1.736 1.33 3.662 2.49 5.085.45.557 1.339 1.438 1.891 1.878 1.404 1.12 3.301 2.038 5.003 2.42 1.066.24 1.589.293 2.811.293 1.223 0 1.746-.054 2.812-.293 1.276-.284 2.948-.998 4.048-1.726a12.52 12.52 0 004.367-4.968 12.096 12.096 0 001.276-5.05c.112-2.924-.822-5.784-2.665-8.175-.41-.533-1.58-1.701-2.112-2.112C17.632.686 14.522-.234 11.32.05zm.728 3.31v2.484l-1.105.064a31.665 31.665 0 00-4.068.474c-.225.044-.416.068-.426.059-.029-.03.308-.827.563-1.325C8.014 3.13 9.3 1.79 10.792 1.18c.342-.142.919-.294 1.124-.298l.132-.005V3.36zM13.466.95c1.491.352 2.9 1.486 3.956 3.193.406.65 1.168 2.234 1.105 2.298-.01.01-.264-.03-.572-.084a29.198 29.198 0 00-3.922-.45l-1.105-.063V.877h.113c.058 0 .249.034.425.073zm-5.139.948a12.773 12.773 0 00-1.462 1.814c-.367.563-1.012 1.868-1.222 2.47l-.152.44-1.662.288c-.915.156-1.678.274-1.692.26-.034-.035.21-.47.606-1.072 1.095-1.677 2.675-3.08 4.518-4.028.303-.157 1.364-.602 1.443-.602.029-.005-.142.19-.377.43zm8.498-.22a11.7 11.7 0 015.408 4.42c.396.602.64 1.037.607 1.071-.015.015-.778-.103-1.692-.26l-1.663-.288-.151-.44c-.21-.6-.856-1.906-1.223-2.469a12.775 12.775 0 00-1.462-1.814c-.235-.24-.41-.435-.391-.435.02 0 .274.098.567.215zm-4.777 7.706v2.689H5.393l.03-.528c.068-1.178.288-2.606.562-3.647.078-.294.151-.538.156-.543.01-.005.5-.088 1.09-.186 1.663-.279 3.257-.445 4.465-.47l.352-.004v2.689zm2.117-2.64c1.105.068 2.254.205 3.58.425a55.8 55.8 0 011.09.186c.005.005.078.25.156.543.274 1.041.494 2.469.563 3.647l.029.528h-6.655V6.695h.196c.112 0 .577.024 1.041.049zm-8.962.836c0 .03-.054.264-.118.523-.24.948-.42 2.215-.494 3.442l-.034.528H.802l.02-.113c.014-.058.034-.293.053-.523.054-.826.284-1.877.597-2.777.098-.278.2-.518.23-.528a147.5 147.5 0 013.417-.601c.044-.005.084.02.084.049zm16.346.244c.943.162 1.73.303 1.75.313.015.015.108.25.206.523.312.9.542 1.951.596 2.777.02.23.04.465.054.524l.02.112h-3.756l-.034-.528c-.074-1.227-.254-2.494-.494-3.442-.122-.499-.137-.577-.088-.577.02 0 .802.132 1.746.298zM4.59 13.476c.074 1.242.255 2.484.5 3.476.068.274.112.514.102.528-.025.025-3.452-.552-3.516-.591a5.29 5.29 0 01-.205-.523c-.313-.9-.543-1.951-.597-2.777-.02-.23-.039-.465-.054-.529l-.02-.107h3.758l.034.523zm7.457 2.166v2.69h-.196c-.454 0-1.94-.108-2.713-.201-.7-.079-2.954-.426-2.998-.46a9.523 9.523 0 01-.156-.543c-.274-1.041-.494-2.469-.562-3.652l-.03-.523h6.655v2.69zm7.506-2.166c-.069 1.183-.289 2.611-.563 3.652a9.52 9.52 0 01-.156.543c-.044.034-2.298.381-2.998.46-.772.093-2.258.2-2.713.2h-.196v-5.378h6.655l-.03.523zm4.6-.416c-.014.064-.033.299-.053.529-.054.826-.284 1.877-.596 2.777a5.177 5.177 0 01-.206.523c-.064.039-3.491.616-3.515.591-.01-.014.034-.254.102-.528.245-.992.425-2.234.499-3.476l.034-.523h3.755l-.02.107zm-20.31 5.06l1.647.284.152.44c.21.602.855 1.907 1.222 2.47a12.77 12.77 0 001.462 1.813c.235.24.41.436.391.436-.068 0-1.095-.426-1.403-.582a12.08 12.08 0 01-4.303-3.653c-.264-.366-.89-1.383-.89-1.447 0-.053-.068-.063 1.721.24zm19.01-.239c0 .064-.626 1.08-.89 1.447a12.08 12.08 0 01-4.303 3.653c-.308.156-1.335.582-1.403.582-.02 0 .157-.196.391-.436a12.772 12.772 0 001.462-1.813c.367-.563 1.012-1.868 1.223-2.47l.151-.44 1.575-.278c1.657-.289 1.794-.308 1.794-.245zm-15.96.768a32.14 32.14 0 004.069.474l1.085.059v2.484c0 2.855.073 2.547-.553 2.405-2.019-.46-3.872-2.425-4.987-5.29-.044-.112-.063-.205-.039-.205s.215.034.425.073zm11.555.18c-1.106 2.827-2.964 4.782-4.968 5.242-.626.142-.553.45-.553-2.405v-2.484l1.09-.059c1.38-.078 3.135-.283 4.166-.498.387-.079.377-.084.265.205z" fill="#fff"/></svg>