<svg width="25" height="25" fill="none" xmlns="http://www.w3.org/2000/svg"><path d="M.5 12.5c0-6.627 5.373-12 12-12 6.628 0 12 5.373 12 12 0 6.628-5.372 12-12 12-6.627 0-12-5.372-12-12z" stroke="url(#paint0_linear_296_1118)"/><path d="M18.582 7.19L16.35 18.447s-.312.78-1.17.406l-5.152-3.95-1.874-.905L5 12.936s-.484-.172-.53-.546c-.047-.375.546-.578.546-.578l12.537-4.918s1.03-.453 1.03.297" fill="#fff"/><path d="M9.63 18.32s-.15-.014-.337-.607c-.187-.593-1.14-3.716-1.14-3.716l7.572-4.808s.438-.266.422 0c0 0 .078.047-.156.265a3446.2 3446.2 0 01-5.948 5.355" fill="#D2E5F1"/><path d="M12.002 16.418l-2.038 1.858s-.159.12-.333.045l.39-3.452" fill="#B5CFE4"/><defs><linearGradient id="paint0_linear_296_1118" x1="0" y1="0" x2="25" y2="25" gradientUnits="userSpaceOnUse"><stop stop-color="#40B3E0"/><stop offset="1" stop-color="#40B3E0" stop-opacity="0"/></linearGradient></defs></svg>