<svg width="30" height="30" fill="none" xmlns="http://www.w3.org/2000/svg"><circle cx="15" cy="15" r="14.5" fill="#37223B" stroke="url(#paint0_linear_296_1812)"/><path d="M13.998 7.388a1.5 1.5 0 012.005 0l5.5 4.942A1.5 1.5 0 0122 13.445V20.5a1.5 1.5 0 01-1.5 1.5H18a1.5 1.5 0 01-1.5-1.5V17a.5.5 0 00-.5-.5h-2a.5.5 0 00-.5.5v3.5A1.5 1.5 0 0112 22H9.5A1.5 1.5 0 018 20.5v-7.055c0-.425.18-.83.498-1.115l5.5-4.942zm1.336.744a.5.5 0 00-.668 0l-5.5 4.942a.5.5 0 00-.166.371V20.5a.5.5 0 00.5.5H12a.5.5 0 00.5-.5V17a1.5 1.5 0 011.5-1.5h2a1.5 1.5 0 011.5 1.5v3.5a.5.5 0 00.5.5h2.5a.5.5 0 00.5-.5v-7.055a.5.5 0 00-.166-.371l-5.5-4.942z" fill="url(#paint1_linear_296_1812)"/><defs><linearGradient id="paint0_linear_296_1812" x1="25.286" y1="25.714" x2="6" y2="2.786" gradientUnits="userSpaceOnUse"><stop stop-color="#FAB9E0" stop-opacity=".4"/><stop offset="1" stop-color="#FAB9E0" stop-opacity="0"/></linearGradient><linearGradient id="paint1_linear_296_1812" x1="8" y1="12.777" x2="22" y2="12.777" gradientUnits="userSpaceOnUse"><stop stop-color="#FF585F"/><stop offset="1" stop-color="#F957A2"/></linearGradient></defs></svg>