<svg width="30" height="30" fill="none" xmlns="http://www.w3.org/2000/svg"><circle cx="15" cy="15" r="14.5" fill="#37223B" stroke="url(#paint0_linear_296_1818)"/><path d="M15 11.875a3.125 3.125 0 100 6.25 3.125 3.125 0 000-6.25zM12.915 15a2.083 2.083 0 114.167 0 2.083 2.083 0 01-4.167 0zm.206 8.112a8.097 8.097 0 003.757-.002.808.808 0 00.614-.696l.14-1.28a.966.966 0 011.355-.781l1.17.513a.8.8 0 00.918-.187 8.49 8.49 0 001.88-3.241.81.81 0 00-.292-.889l-1.04-.766a.968.968 0 010-1.569l1.036-.765a.81.81 0 00.292-.89 8.47 8.47 0 00-1.881-3.241.807.807 0 00-.914-.188l-1.169.515a.938.938 0 01-.386.084.974.974 0 01-.966-.87l-.142-1.275a.807.807 0 00-.625-.7 9.027 9.027 0 00-1.862-.217 9.1 9.1 0 00-1.875.217.806.806 0 00-.625.698l-.142 1.276a.978.978 0 01-.32.62 1.053 1.053 0 01-.653.25.959.959 0 01-.385-.08L9.84 9.133a.807.807 0 00-.916.188 8.481 8.481 0 00-1.88 3.24.809.809 0 00.292.89l1.037.765a.977.977 0 010 1.57l-1.037.766a.808.808 0 00-.292.89 8.473 8.473 0 001.88 3.242.804.804 0 00.913.189l1.174-.515a.955.955 0 01.385-.081h.003a.974.974 0 01.967.864l.14 1.274a.808.808 0 00.616.697zm3.36-.977a7.08 7.08 0 01-2.958 0l-.127-1.11a2.016 2.016 0 00-2-1.791h-.004a1.975 1.975 0 00-.803.166l-1.019.448a7.434 7.434 0 01-1.483-2.562l.902-.666a2.017 2.017 0 000-3.247l-.902-.666a7.439 7.439 0 011.484-2.559l1.013.447c.254.112.528.17.805.17h.004a2.02 2.02 0 002.004-1.797l.125-1.108a8.07 8.07 0 011.484-.157 7.92 7.92 0 011.473.156l.125 1.108a2.015 2.015 0 002 1.798c.28.006.557-.052.81-.171l1.013-.446a7.43 7.43 0 011.484 2.558l-.898.664a2.012 2.012 0 000 3.25l.902.667a7.45 7.45 0 01-1.484 2.558l-1.016-.446a2.008 2.008 0 00-2.812 1.625l-.122 1.11z" fill="url(#paint1_linear_296_1818)"/><defs><linearGradient id="paint0_linear_296_1818" x1="25.286" y1="25.714" x2="6" y2="2.786" gradientUnits="userSpaceOnUse"><stop stop-color="#FAB9E0" stop-opacity=".4"/><stop offset="1" stop-color="#FAB9E0" stop-opacity="0"/></linearGradient><linearGradient id="paint1_linear_296_1818" x1="7.008" y1="13.083" x2="22.991" y2="13.083" gradientUnits="userSpaceOnUse"><stop stop-color="#FF585F"/><stop offset="1" stop-color="#F957A2"/></linearGradient></defs></svg>