<svg width="30" height="30" fill="none" xmlns="http://www.w3.org/2000/svg"><circle cx="15" cy="15" r="14.5" fill="#37223B" stroke="url(#paint0_linear_296_1832)"/><path d="M8.82 15.495h8.663a.5.5 0 100-1H8.851l1.81-1.809a.5.5 0 10-.708-.707L7 15.01l2.953 3.031a.498.498 0 00.707 0 .5.5 0 000-.707l-1.84-1.84zM21.99 7h-8.5a1 1 0 00-1 1v4.5h1.006V8.61c0-.334.271-.605.605-.605h7.261c.335 0 .605.27.605.605l.016 12.785c0 .335-.27.605-.605.605h-7.277a.605.605 0 01-.605-.605v-3.912l-1.006.002V22a1 1 0 001 1h8.5a1 1 0 001-1V8a1 1 0 00-1-1z" fill="url(#paint1_linear_296_1832)"/><defs><linearGradient id="paint0_linear_296_1832" x1="25.286" y1="25.714" x2="6" y2="2.786" gradientUnits="userSpaceOnUse"><stop stop-color="#FAB9E0" stop-opacity=".4"/><stop offset="1" stop-color="#FAB9E0" stop-opacity="0"/></linearGradient><linearGradient id="paint1_linear_296_1832" x1="7" y1="13.16" x2="22.99" y2="13.16" gradientUnits="userSpaceOnUse"><stop stop-color="#FF585F"/><stop offset="1" stop-color="#F957A2"/></linearGradient></defs></svg>